<?xml version="1.0"?><svg version="1.1" id="圖層_1" xmlns="http://www.w3.org/2000/svg" x="0" y="0" viewBox="0 0 100 100" xml:space="preserve"><path d="M63.11 34.423h17.298a7.775 7.775 0 0 1 7.776 7.776v2.539a7.775 7.775 0 0 1-7.776 7.776H63.11" fill="none" stroke="#333" stroke-width="3.5" stroke-miterlimit="10"/><path d="M53.593 64.417H38.356c-10.134 0-18.753-7.389-20.302-17.404l-2.531-16.366a4.57 4.57 0 0 1 4.517-5.269h51.869a4.57 4.57 0 0 1 4.517 5.269l-2.531 16.366c-1.549 10.014-10.169 17.404-20.302 17.404z" fill="#e0e0e0" stroke-width="3.5" stroke="#333" stroke-miterlimit="10"/><path d="M81 76.583H19c-2.946 0-5.333-3.388-5.333-6.333v0h72.667v0c-.001 2.946-2.388 6.333-5.334 6.333z" fill="#e0e0e0" stroke-width="3.5" stroke="#333" stroke-miterlimit="10"/><metadata xmlns:d="https://loading.io/stock/">
<d:name>coffee</d:name>
<d:tags>coffee,cafe,tea,cup,drink,cafeteria,latte,cappuccino,espresso,macchiato</d:tags>
<d:license>by</d:license>
<d:slug>2cd7pq</d:slug>
</metadata></svg>