<svg xmlns="http://www.w3.org/2000/svg" width="17" height="17" viewBox="0 0 17 17" fill="none">
<g clip-path="url(#clip0_8_96)">
<path d="M11.5911 4.88938H13.0779L11.4654 9.9064C11.3221 10.3125 11.2505 10.6052 11.2505 10.7846V10.8026C11.2505 11.1249 11.4236 11.3637 11.7699 11.519H11.788C11.8955 11.5667 12.0151 11.5906 12.1467 11.5906C12.9111 11.5906 13.6098 11.1606 14.2426 10.3006C14.8521 9.45273 15.1569 8.51512 15.1569 7.48784V7.46979C15.1569 6.03642 14.5775 4.78804 13.4186 3.72466C12.236 2.62594 10.8086 2.04067 9.13649 1.96885H8.84941C7.09341 1.96886 5.54064 2.57801 4.19111 3.7963L3.63554 4.35186C2.41687 5.70177 1.80754 7.23686 1.80754 8.95713V8.97462C1.80754 10.6592 2.43474 12.0807 3.68913 13.2392C4.97924 14.4338 6.58596 15.0311 8.5093 15.0311H8.52679C9.47059 15.0311 10.6235 14.8399 11.9854 14.4575L12.4868 15.6583C11.1489 16.1599 9.79922 16.4107 8.43766 16.4107C6.28722 16.4107 4.4297 15.7717 2.86508 14.4936C1.40764 13.299 0.565365 11.8237 0.338256 10.0677C0.30253 9.51834 0.284667 9.24366 0.284668 9.24366C0.284667 7.40418 0.852077 5.70797 1.9869 4.15501C2.13016 3.96363 2.27944 3.77844 2.43474 3.59944C2.44677 3.58742 2.4588 3.57539 2.47083 3.56335C2.48286 3.5517 2.4947 3.53985 2.50637 3.52781C2.6737 3.3368 2.85287 3.15161 3.04389 2.97225L3.11552 2.90062C4.40564 1.73008 5.95257 0.995529 7.75633 0.696956C8.19852 0.625154 8.64052 0.589247 9.08236 0.589233C11.0655 0.589247 12.7916 1.19238 14.2607 2.39864C15.6463 3.52181 16.4466 4.88957 16.6617 6.50193C16.6975 6.75275 16.7153 6.99772 16.7153 7.23685V7.2549C16.7153 8.70031 16.2137 10.0143 15.2105 11.1969C15.1985 11.2206 15.1864 11.2384 15.1744 11.2505C14.2667 12.3135 13.1557 12.845 11.8416 12.845C10.6951 12.845 10.0382 12.3851 9.87086 11.4654C9.08235 12.3253 8.24026 12.7553 7.34458 12.7553H7.32654C6.347 12.7553 5.57654 12.3432 5.01516 11.519C4.60905 10.9459 4.406 10.2711 4.406 9.49465V9.4766C4.406 8.17446 4.87772 7.02178 5.82116 6.01855C6.74126 5.027 7.7926 4.52521 8.97518 4.51317H9.01073C10.0023 4.51318 10.725 5.02682 11.1788 6.05409L11.1969 6.07214L11.5911 4.88938ZM8.90355 5.65984C8.11504 5.65985 7.42204 6.08399 6.82456 6.93227C6.28722 7.6847 6.01855 8.5328 6.01856 9.4766V9.49465C6.01855 10.2948 6.29925 10.898 6.86065 11.3041H6.8787C7.15319 11.5071 7.45175 11.6086 7.77438 11.6086H7.79242C8.48505 11.6086 9.0942 11.2204 9.61988 10.4439C10.0143 9.87049 10.307 9.08217 10.4981 8.07894L10.5877 7.38012C10.6235 6.72322 10.3666 6.23345 9.81728 5.91083C9.5424 5.74351 9.23783 5.65985 8.90355 5.65984Z" fill="white"/>
</g>
<defs>
<clipPath id="clip0_8_96">
<rect width="17" height="17" fill="white"/>
</clipPath>
</defs>
</svg>