<svg xmlns="http://www.w3.org/2000/svg" width="19" height="19" viewBox="0 0 19 19" fill="none">
<path d="M18.8553 4.54591L13.942 9.54454C13.9123 9.57423 13.9123 9.6336 13.942 9.66329L17.3895 13.3186C17.6232 13.5524 17.6232 13.9309 17.3895 14.1647C17.2707 14.2834 17.126 14.3391 16.9813 14.3391C16.8365 14.3391 16.6881 14.2797 16.573 14.1647L13.0959 10.5391C13.0662 10.5094 13.0068 10.5094 12.9512 10.5391L12.1311 11.3852C11.4297 12.0865 10.4945 12.4947 9.5 12.4947C8.47578 12.4947 7.54063 12.0865 6.80957 11.3555L5.99316 10.5391C5.96348 10.5094 5.9041 10.5094 5.84844 10.5391L2.48633 14.1906C2.36758 14.3094 2.22285 14.365 2.07812 14.365C1.9334 14.365 1.78496 14.3057 1.66992 14.1906C1.43613 13.9568 1.43613 13.5783 1.66992 13.3445L5.11738 9.68926C5.14707 9.65958 5.14707 9.6002 5.11738 9.57051L0.144727 4.54591C0.0853516 4.48653 0 4.51622 0 4.60528V14.6322C0 15.4524 0.67168 16.0943 1.46211 16.0943H17.5379C18.358 16.0943 19 15.4227 19 14.6322V4.60528C19 4.5459 18.9109 4.48653 18.8553 4.54591Z" fill="white"/>
<path d="M9.5 11.2961C10.1717 11.2961 10.8137 11.0326 11.2812 10.5353L18.4434 3.22849C18.1799 3.02439 17.8867 2.90564 17.5379 2.90564H1.46211C1.10957 2.90564 0.79043 3.02439 0.556641 3.22849L7.71875 10.539C8.18633 11.0363 8.82832 11.2961 9.5 11.2961Z" fill="white"/>
</svg>
