<svg xmlns="http://www.w3.org/2000/svg" width="17" height="17" viewBox="0 0 17 17" fill="none">
  <g clip-path="url(#clip0_8_99)">
    <path d="M13.4354 10.5309C13.0873 10.1685 12.6675 9.97472 12.2226 9.97472C11.7813 9.97472 11.3579 10.1649 10.9955 10.5273L9.86174 11.6575C9.76845 11.6072 9.67517 11.5606 9.58547 11.514C9.4563 11.4494 9.33431 11.3884 9.23026 11.3238C8.16822 10.6493 7.20306 9.77021 6.27736 8.63282C5.82887 8.06592 5.52748 7.58872 5.30861 7.10435C5.60282 6.83525 5.87551 6.55539 6.14102 6.28629C6.24148 6.18583 6.34194 6.08178 6.44241 5.98131C7.19588 5.22784 7.19588 4.25191 6.44241 3.49844L5.46289 2.51893C5.35167 2.4077 5.23685 2.29288 5.12921 2.17807C4.91393 1.95562 4.68789 1.72599 4.45467 1.51071C4.10664 1.16626 3.69044 0.983276 3.25271 0.983276C2.81497 0.983276 2.39159 1.16626 2.0328 1.51071C2.02921 1.5143 2.02921 1.5143 2.02562 1.51788L0.805712 2.74856C0.346453 3.20782 0.084531 3.76754 0.0271236 4.41696C-0.0589876 5.46465 0.249577 6.44057 0.486383 7.07923C1.06763 8.64717 1.93592 10.1003 3.23118 11.6575C4.80271 13.534 6.69356 15.0158 8.85352 16.0599C9.67875 16.451 10.7803 16.9138 12.0109 16.9928C12.0863 16.9964 12.1652 17 12.237 17C13.0658 17 13.7619 16.7022 14.3072 16.1101C14.3108 16.103 14.318 16.0994 14.3216 16.0922C14.5082 15.8662 14.7234 15.6616 14.9495 15.4428C15.1038 15.2957 15.2616 15.1414 15.4159 14.9799C15.7711 14.6104 15.9577 14.1798 15.9577 13.7385C15.9577 13.2936 15.7675 12.8666 15.4051 12.5078L13.4354 10.5309ZM14.7198 14.309C14.7163 14.309 14.7163 14.3126 14.7198 14.309C14.5799 14.4597 14.4364 14.596 14.2821 14.7467C14.0489 14.9692 13.8121 15.2024 13.5896 15.4643C13.2273 15.8518 12.8003 16.0348 12.2406 16.0348C12.1867 16.0348 12.1293 16.0348 12.0755 16.0312C11.0099 15.963 10.0196 15.5468 9.2769 15.1916C7.24611 14.2085 5.46289 12.8128 3.98106 11.0439C2.75757 9.56928 1.93951 8.20585 1.39773 6.74196C1.06405 5.84856 0.942055 5.15249 0.995875 4.4959C1.03175 4.0761 1.19321 3.72807 1.49101 3.43027L2.71451 2.20677C2.89032 2.04173 3.0769 1.95203 3.25988 1.95203C3.48592 1.95203 3.66891 2.08837 3.78372 2.20318C3.78731 2.20677 3.7909 2.21036 3.79449 2.21395C4.01335 2.41846 4.22146 2.63015 4.44032 2.85619C4.55155 2.97101 4.66636 3.08582 4.78118 3.20423L5.76069 4.18374C6.14102 4.56407 6.14102 4.91569 5.76069 5.29601C5.65664 5.40006 5.55618 5.50411 5.45213 5.60458C5.15074 5.91314 4.8637 6.20018 4.55155 6.48004C4.54437 6.48722 4.5372 6.4908 4.53361 6.49798C4.22504 6.80655 4.28245 7.10793 4.34703 7.31245C4.35062 7.32321 4.35421 7.33398 4.3578 7.34474C4.61254 7.96187 4.97134 8.54312 5.51671 9.2356L5.5203 9.23919C6.51058 10.4591 7.55468 11.4099 8.70641 12.1383C8.85352 12.2316 9.00422 12.3069 9.14773 12.3787C9.2769 12.4432 9.39889 12.5042 9.50294 12.5688C9.51729 12.576 9.53165 12.5868 9.546 12.5939C9.66799 12.6549 9.7828 12.6836 9.90121 12.6836C10.199 12.6836 10.3856 12.4971 10.4466 12.4361L11.6737 11.209C11.7957 11.087 11.9894 10.9399 12.2154 10.9399C12.4379 10.9399 12.6209 11.0798 12.7321 11.2018C12.7357 11.2054 12.7357 11.2054 12.7393 11.209L14.7163 13.186C15.0858 13.5519 15.0858 13.9287 14.7198 14.309Z" fill="white"/>
    <path d="M9.18722 4.04389C10.1273 4.20176 10.9812 4.64667 11.6629 5.32838C12.3446 6.0101 12.7859 6.86403 12.9474 7.80408C12.9869 8.04089 13.1914 8.20593 13.4246 8.20593C13.4533 8.20593 13.4784 8.20234 13.5071 8.19876C13.7726 8.1557 13.9484 7.90454 13.9054 7.63903C13.7116 6.50165 13.1734 5.46473 12.3518 4.64308C11.5302 3.82144 10.4932 3.28324 9.35585 3.08949C9.09034 3.04644 8.84277 3.22225 8.79613 3.48417C8.74948 3.74609 8.92171 4.00084 9.18722 4.04389Z" fill="white"/>
    <path d="M16.9803 7.49906C16.6609 5.62614 15.7783 3.92186 14.422 2.5656C13.0658 1.20935 11.3615 0.326714 9.48858 0.00738456C9.22666 -0.039259 8.97909 0.140139 8.93245 0.402061C8.88939 0.66757 9.0652 0.91514 9.33071 0.961784C11.0027 1.24523 12.5276 2.03817 13.7403 3.24732C14.9531 4.46005 15.7424 5.98494 16.0259 7.65693C16.0653 7.89373 16.2698 8.05878 16.5031 8.05878C16.5318 8.05878 16.5569 8.05519 16.5856 8.0516C16.8475 8.01214 17.0269 7.76098 16.9803 7.49906Z" fill="white"/>
  </g>
  <defs>
    <clipPath id="clip0_8_99">
      <rect width="17" height="17" fill="white"/>
    </clipPath>
  </defs>
</svg>